/* XPM */
static char *_5c54efd73cf4a39e4f27a35da93d616[] = {
/* columns rows colors chars-per-pixel */
"16 16 97 2 ",
"   c #0074D6",
".  c #0075D6",
"X  c #0076D6",
"o  c #0076D7",
"O  c #0077D7",
"+  c #0078D7",
"@  c #0178D7",
"#  c #0179D7",
"$  c #067BD8",
"%  c #097DD8",
"&  c #0A7DD8",
"*  c #0A7DD9",
"=  c #0B7DD9",
"-  c #0D7FD9",
";  c #0E7FD9",
":  c #0F80D9",
">  c #1381DA",
",  c #1382DA",
"<  c #1884DB",
"1  c #1985DB",
"2  c #2189DC",
"3  c #2289DC",
"4  c #228ADC",
"5  c #238ADC",
"6  c #2B8FDE",
"7  c #2C8FDE",
"8  c #2E90DE",
"9  c #3392DF",
"0  c #3393DF",
"q  c #3493DF",
"w  c #3594DF",
"e  c #3795DF",
"r  c #3F99E1",
"t  c #449CE2",
"y  c #489EE2",
"u  c #4CA0E3",
"i  c #4FA1E3",
"p  c #4FA2E3",
"a  c #51A2E4",
"s  c #53A4E4",
"d  c #54A4E4",
"f  c #5AA7E5",
"g  c #5DA9E5",
"h  c #5DA9E6",
"j  c #5EA9E6",
"k  c #61ABE6",
"l  c #65ADE7",
"z  c #68AFE7",
"x  c #6CB1E8",
"c  c #71B3E8",
"v  c #72B4E9",
"b  c #74B5E9",
"n  c #78B7EA",
"m  c #7DBAEB",
"M  c #81BCEB",
"N  c #85BEEC",
"B  c #8DC2ED",
"V  c #8FC4ED",
"C  c #90C4EE",
"Z  c #91C4EE",
"A  c #94C6EE",
"S  c #97C7EE",
"D  c #97C7EF",
"F  c #98C8EF",
"G  c #99C8EF",
"H  c #9AC9EF",
"J  c #9DCBF0",
"K  c #A2CDF0",
"L  c #A4CFF1",
"P  c #A5CFF1",
"I  c #A6D0F1",
"U  c #A8D0F1",
"Y  c #A9D1F1",
"T  c #BEDCF5",
"R  c #BFDDF5",
"E  c #C2DFF5",
"W  c #C4DFF6",
"Q  c #C4E0F6",
"!  c #C7E1F6",
"~  c #CCE4F7",
"^  c #CDE4F7",
"/  c #CEE4F7",
"(  c #CFE5F7",
")  c #D0E6F8",
"_  c #D2E7F8",
"`  c #D7EAF9",
"'  c #E2EFFA",
"]  c #E6F1FB",
"[  c #E8F3FB",
"{  c #E9F3FB",
"}  c #ECF5FC",
"|  c #F1F7FD",
" . c #F1F8FD",
".. c #F3F8FD",
"X. c #F7FBFE",
"o. c gray100",
"O. c None",
/* pixels */
"O.O.O.O.O.+ + + + + + O.O.O.O.O.",
"O.O.O.O.+ + + + + + + + O.O.O.O.",
"O.O.+ + + + + + + O + + + + O.O.",
"O.O.+ + + + + + + > + + + + O.O.",
"O.+ O + O O O O O c w O O O O O.",
"O * x Y b N P i O A W v d ; O + ",
"O k | ~ X.} ) ] 9 V o.{ ..Y > O ",
"O F ~ 5 ) J w } g C ` 7 l | z O ",
"+ H Q > Q B 5 ' f C / * * ~ H O ",
"O S ) 1 t 6 $ u 1 e s ; r { n O ",
"O g  .~ R g > A w i E W { W 5 O ",
"O.% k K I u > M 7 y P P m 5 O O.",
"O.O.O O + O + O O O + + O O O.O.",
"O.O.+ + + + + + + + + + O O O.O.",
"O.O.O.O.+ + + + + + + + O.O.O.O.",
"O.O.O.O.O.+ + + + + + O.O.O.O.O."
};
