/* XPM */
static char *a450790c9a35425fe2c0b049d73d403c[] = {
/* columns rows colors chars-per-pixel */
"64 64 214 2 ",
"   c #0074D6",
".  c #0075D6",
"X  c #0076D6",
"o  c #0076D7",
"O  c #0077D7",
"+  c #0078D7",
"@  c #0178D7",
"#  c #0278D7",
"$  c #0279D7",
"%  c #0379D7",
"&  c #0479D7",
"*  c #0579D7",
"=  c #057AD8",
"-  c #067BD8",
";  c #077BD8",
":  c #087BD8",
">  c #097CD8",
",  c #0A7CD8",
"<  c #0A7DD8",
"1  c #0B7DD8",
"2  c #0C7DD9",
"3  c #0E7ED9",
"4  c #0E7FD9",
"5  c #0F7FD9",
"6  c #107FD9",
"7  c #1080D9",
"8  c #1180D9",
"9  c #1280D9",
"0  c #1381DA",
"q  c #1582DA",
"w  c #1683DA",
"e  c #1884DA",
"r  c #1984DA",
"t  c #1884DB",
"y  c #1A84DB",
"u  c #1B85DB",
"i  c #1C86DB",
"p  c #1D86DB",
"a  c #1E86DB",
"s  c #1F87DC",
"d  c #2088DC",
"f  c #2188DC",
"g  c #2389DC",
"h  c #2489DC",
"j  c #258ADC",
"k  c #268BDD",
"l  c #288BDD",
"z  c #298CDD",
"x  c #298DDD",
"c  c #2E8FDE",
"v  c #2F90DE",
"b  c #3090DE",
"n  c #3190DE",
"m  c #3191DE",
"M  c #3291DE",
"N  c #3391DE",
"B  c #3392DF",
"V  c #3794DF",
"C  c #3894DF",
"Z  c #3B95E0",
"A  c #3B96E0",
"S  c #3C96E0",
"D  c #3D97E0",
"F  c #4098E1",
"G  c #4199E1",
"H  c #4299E1",
"J  c #4399E1",
"K  c #449BE1",
"L  c #459BE1",
"P  c #469BE1",
"I  c #489DE2",
"U  c #499DE2",
"Y  c #4A9EE2",
"T  c #4B9EE2",
"R  c #4DA0E3",
"E  c #4EA0E3",
"W  c #4FA0E3",
"Q  c #51A1E3",
"!  c #52A2E3",
"~  c #53A2E3",
"^  c #53A2E4",
"/  c #56A4E4",
"(  c #57A4E4",
")  c #58A5E4",
"_  c #5AA6E4",
"`  c #5AA6E5",
"'  c #5BA6E5",
"]  c #5BA7E5",
"[  c #5CA7E5",
"{  c #5CA8E5",
"}  c #5DA8E5",
"|  c #5EA8E5",
" . c #5FA8E5",
".. c #5FA9E6",
"X. c #61AAE6",
"o. c #62AAE6",
"O. c #63ABE6",
"+. c #64ABE6",
"@. c #65ACE6",
"#. c #67ADE7",
"$. c #69AEE7",
"%. c #6AAEE7",
"&. c #6BAFE7",
"*. c #6CAFE7",
"=. c #6EB1E8",
"-. c #6FB1E8",
";. c #70B1E8",
":. c #71B1E8",
">. c #70B2E8",
",. c #71B2E8",
"<. c #72B2E8",
"1. c #73B2E8",
"2. c #72B3E8",
"3. c #73B3E8",
"4. c #74B3E9",
"5. c #74B4E9",
"6. c #78B5E9",
"7. c #78B6E9",
"8. c #79B7EA",
"9. c #7EB9EA",
"0. c #7FBAEB",
"q. c #81BAEB",
"w. c #81BBEB",
"e. c #83BBEB",
"r. c #83BCEB",
"t. c #84BCEB",
"y. c #87BEEC",
"u. c #88BEEC",
"i. c #89BFEC",
"p. c #8ABFEC",
"a. c #8BC0EC",
"s. c #8CC0EC",
"d. c #8EC2ED",
"f. c #92C4EE",
"g. c #93C4EE",
"h. c #94C4EE",
"j. c #94C5EE",
"k. c #96C6EE",
"l. c #97C6EE",
"z. c #97C7EE",
"x. c #97C7EF",
"c. c #98C8EF",
"v. c #9AC8EF",
"b. c #9ECAEF",
"n. c #A1CCF0",
"m. c #A2CCF0",
"M. c #A4CEF0",
"N. c #A5CEF1",
"B. c #A6CEF1",
"V. c #A9D0F1",
"C. c #AFD3F2",
"Z. c #B0D3F2",
"A. c #B0D4F2",
"S. c #B1D4F2",
"D. c #B2D5F2",
"F. c #B2D5F3",
"G. c #B3D6F3",
"H. c #B9D9F4",
"J. c #BBDAF4",
"K. c #BCDAF4",
"L. c #BCDBF4",
"P. c #BEDBF4",
"I. c #C3DEF5",
"U. c #C5DFF6",
"Y. c #C6E0F6",
"T. c #C8E1F6",
"R. c #C9E1F6",
"E. c #CCE3F7",
"W. c #CEE4F7",
"Q. c #CFE4F7",
"!. c #D0E5F7",
"~. c #D2E6F8",
"^. c #D3E7F8",
"/. c #D7E9F8",
"(. c #D9EAF9",
"). c #DBEBF9",
"_. c #DCECF9",
"`. c #DDECF9",
"'. c #DEECFA",
"]. c #DEEDFA",
"[. c #E0EEFA",
"{. c #E2EFFA",
"}. c #E3EFFA",
"|. c #E4F0FA",
" X c #E5F1FB",
".X c #E9F3FB",
"XX c #EAF3FB",
"oX c #EBF4FC",
"OX c #ECF4FC",
"+X c #ECF5FC",
"@X c #EEF5FC",
"#X c #F0F6FC",
"$X c #F0F7FC",
"%X c #F0F7FD",
"&X c #F2F8FD",
"*X c #F3F8FD",
"=X c #F5F9FD",
"-X c #F6FAFD",
";X c #F6FAFE",
":X c #F7FBFE",
">X c #F8FBFE",
",X c #F9FCFE",
"<X c #FAFCFE",
"1X c #FBFCFE",
"2X c #FBFDFE",
"3X c #FCFDFE",
"4X c #FCFDFF",
"5X c #FDFDFF",
"6X c #FCFEFF",
"7X c #FDFEFF",
"8X c #FEFEFF",
"9X c #FEFFFF",
"0X c gray100",
"qX c None",
/* pixels */
"qXqXqXqXqXqXqXqXqXqXqXqXqXqXqXqXqXqXqXqXqXqXqXqXqXqXqXqXqX+ + + + + + qXqXqXqXqXqXqXqXqXqXqXqXqXqXqXqXqXqXqXqXqXqXqXqXqXqXqXqXqX",
"qXqXqXqXqXqXqXqXqXqXqXqXqXqXqXqXqXqXqXqXqXqXqXqX+ + + + + + + + + + + + + + + + qXqXqXqXqXqXqXqXqXqXqXqXqXqXqXqXqXqXqXqXqXqXqXqX",
"qXqXqXqXqXqXqXqXqXqXqXqXqXqXqXqXqXqXqXqXqX+ + + + + + + + + + + + + + + + + + + + + + qXqXqXqXqXqXqXqXqXqXqXqXqXqXqXqXqXqXqXqXqX",
"qXqXqXqXqXqXqXqXqXqXqXqXqXqXqXqXqXqX+ + + + + + + + + + + + + + + + + + + + + + + + + + + qXqXqXqXqXqXqXqXqXqXqXqXqXqXqXqXqXqXqX",
"qXqXqXqXqXqXqXqXqXqXqXqXqXqXqXqXqX+ + + + + + + + + + + + + + + + + + + + + + + + + + + + + + qXqXqXqXqXqXqXqXqXqXqXqXqXqXqXqXqX",
"qXqXqXqXqXqXqXqXqXqXqXqXqXqXqX+ + + + + + + + + + + + + + + + + + + + + + + + + + + + + + + + + + qXqXqXqXqXqXqXqXqXqXqXqXqXqXqX",
"qXqXqXqXqXqXqXqXqXqXqXqXqX+ + + + + + + + + + + + + + + + + + + + + + + + + + + + + + + + + + + + + + qXqXqXqXqXqXqXqXqXqXqXqXqX",
"qXqXqXqXqXqXqXqXqXqXqXqX+ + + + + + + + + + + + + + + + + + + + + + + + + + + + + + + + + + + + + + + + qXqXqXqXqXqXqXqXqXqXqXqX",
"qXqXqXqXqXqXqXqXqXqXqX+ + + + + + + + + + + + + + + + + + + + + + + + + + + + + + + + + + + + + + + + + + qXqXqXqXqXqXqXqXqXqXqX",
"qXqXqXqXqXqXqXqXqXqX+ + + + + + + + + + + + + + + + + + + + + + + + + + + + + + + + + + + + + + + + + + + + qXqXqXqXqXqXqXqXqXqX",
"qXqXqXqXqXqXqXqXqX+ + + + + + + + + + + + + + + + + + + + + + + + + + + + + + + + + + + + + + + + + + + + + + qXqXqXqXqXqXqXqXqX",
"qXqXqXqXqXqXqXqX+ + + + + + + + + + + + + + + + + + + + + + + + + + + + + + + + + + + + + + + + + + + + + + + + qXqXqXqXqXqXqXqX",
"qXqXqXqXqXqXqX+ + + + + + + + + + + + + + + + + + + + + + + + + + + + + + + + + + + + + + + + + + + + + + + + + + qXqXqXqXqXqXqX",
"qXqXqXqXqXqX+ + + + + + + + + + + + + + + + + + + + + + + + + + + + + + + O + + + + + + + + + + + + + + + + + + + + qXqXqXqXqXqX",
"qXqXqXqXqXqX+ + + + + + + + + + + + + + + + + + + + + + + + + + + + + + O p 5 O + + + + + + + + + + + + + + + + + + qXqXqXqXqXqX",
"qXqXqXqXqX+ + + + + + + + + + + + + + + + + + + + + + + + + + + + + + + O ( 6.O + + + + + + + + + + + + + + + + + + + qXqXqXqXqX",
"qXqXqXqXqX+ + + + + + + + + + + + + + + + + + + + + + + + + + + + + + + X } XXL O + + + + + + + + + + + + + + + + + + qXqXqXqXqX",
"qXqXqXqX+ + + + + + + + + + + + + + + + + + + + + + + + + + + + + + + + X _ 8XR.p O + + + + + + + + + + + + + + + + + + qXqXqXqX",
"qXqXqX+ + + + + + + + + + + + + + + + + + + + + + + + + + + + + + + + + X _ 8X8Xh.* + + + + + + + + + + + + + + + + + + qXqXqXqX",
"qXqXqX+ + + + + + + + + + + + + + + + + + + + + + + + + + + + + + + + + X _ 8X8X:X| O + + + + + + + + + + + + + + + + + + qXqXqX",
"qXqXqX+ + + + + + + O O + : > + O O + + + O X + > : + O O + + + + + + + X _ 8X8X8X].c O + + + + + + + + + + + + + + + + + qXqXqX",
"qXqX+ + + + + + O + z :.M.K.J.m.$.h O + O g $.m.K.K.M.:.z + O + + + + + O _ 8X8X8X8XZ.5 + * > - O O + + + + + + + + + + + + qXqX",
"qXqX+ + + + + O 9 w.|.8X8X8X8X8X8X`.3.p 3.`.8X8X8X8X8X8X|.w.9 + + + + + O _ 8X8X8X8X2XV.m.J.P.D.h.X.z + O O + + + + + + + + qXqX",
"qXqX+ + + + O u A.8X8X8X8X8X8X8X8X8X1X).8X8X8X8X8X8X8X8X8X8XD.p O + + + O _ 8X8X8X8X8X8X8X8X8X8X8X8X|.v.N O + + + + + + + + qXqX",
"qX+ + + + + 3 M.8X8X8X8X8X8X8X8X8X8X8X8X8X8X8X8X8X8X8X8X8X8X8XM.3 + + + O _ 8X8X8X8X8X8X8X8X8X8X8X8X8X8X|.2.> O + + + + + + + qX",
"qX+ + + + O +.1X8X8X8X8X8X8X8X8X8X8X8X8X8X8X8X8X8X8X8X8X8X8X8X3XO.X + + X _ 8X8X8X8X8X8X8X8X8X8X8X8X8X8X8X2Xh.5 O + + + + + + qX",
"qX+ + + + 6 Y.8X8X8X8X8X>X).).1X8X8X8X8X8X8X8X>X)./.2X8X8X8X8X8XI.9 + + X _ 8X8X8X8X8X8X8X8X8X8X8X8X8X8X8X8X8Xd.: + + + + + + qX",
"qX+ + + + C &X8X8X8X8XXXO.e u :.&X8X8X8X8X8X$X:.u u +..X8X8X8X8X&XC O + X _ 8X8X8X8X8X8X=X[.].@X8X8X8X8X8X8X8X2XX.O + + + + + qX",
"qX+ + + O X.8X8X8X8X8Xr.O O O + k.8X8X8X8X8Xk.O O O X t.8X8X8X8X8XX.X + X _ 8X8X8X8X8XD.C p p M $.I.8X8X8X8X8X8X/.g O + + + + qX",
"+ + + + O :.8X8X8X8X2XR X + O X O.8X8X8X8X8XO.X + + X R 3X8X8X8X8X:.X + X _ 8X8X8X8X8X:.# O O O O 9 w.:X8X8X8X8X8X6.O + + + + qX",
"+ + + + O :.8X8X8X8X2XI X + + X _ 8X8X8X8X8X} X + + O Y 1X8X8X8X8X:.X + X _ 8X8X8X8X8X1.O O + + + O * u.8X8X8X8X8XR.6 O + + + + ",
"+ + + + O :.8X8X8X8X2XI X + + X [ 8X8X8X8X8X} O + + X Y 1X8X8X8X8X3.X + X _ 8X8X8X8X8X1.O O + + + + O u !.8X8X8X8X%XC O + + + + ",
"+ + + + X 3.8X8X8X8X2XU X + + X } 8X8X8X8X8X} X + + + U 2X8X8X8X8X:.X + X _ 8X8X8X8X8X3.X + + + + + + X t.8X8X8X8X8X[ X + + + + ",
"+ + + + X :.8X8X8X8X:XU X + + X [ 8X8X8X8X8X} X + + O U 2X8X8X8X8X>.X + X _ 8X8X8X8X8X:.X + + + + + + X _ 8X8X8X8X8X6.O + + + + ",
"+ + + + X :.8X8X8X8X1XL X + + X _ 8X8X8X8X8X[ X + + O U 2X8X8X8X8X3.X + X _ 8X8X8X8X8X:.X + + + + + + X Q 2X8X8X8X8Xw.O + + + qX",
"qX+ + + X 3.8X8X8X8X>XY X + + X H =X8X8X8X=XH O + + + M XX8X8X8X1X! X + X _ 8X8X8X8X8X1.X + + + + + + X } 8X8X8X8X8X5.O + + + qX",
"qX+ + + X 1.8X8X8X8X2XU X + + + > v.8X8X8Xv.> + + + + * p.8X8X8XV.9 O + X _ 8X8X8X8X8X:.X + + + + + + O s.8X8X8X8X8X_ O + + + qX",
"qX+ + + O 1.8X8X8X8X2XI X + + + O 3 _ t._ 3 O + + + + O > Q r.X.9 O + + + h $.*.*.$.*.m O + + + + + O u /.8X8X8X8X.Xc O + + + qX",
"qX+ + + O *.8X8X8X8X2XQ X + + + + + O O O + + + + + + + O O O O + + + + + O O O X X X O + + + + + + * a.8X8X8X8X8XP.3 O + + + qX",
"qX+ + + O _ 8X8X8X8X8Xv.* X X O X X X X O + + + + + + + O O O O + + + + + + + O O X X X X X X X X r a.>X8X8X8X8X8X#.O + + + + qX",
"qXqX+ + O M @X8X8X8X8X:Xh.H C C C C C C g + + + + + + + O u V p + + + + + + O w M C C C C C C R w.!.8X8X8X8X8X8XY.q O + + + qXqX",
"qXqX+ + + > D.8X8X8X8X8X8X:X&X&X&X&X&X&X`.:.* + + + + + ( !.%X/.+.+ + + + O Q W.$X&X&X&X&X&X=X8X8X8X8X8X8X8X8X@XU O + + + + qXqX",
"qXqX+ + + O T %X8X8X8X8X8X8X8X8X8X8X8X8X8X=XL + + + + h ].8X8X8X@XC O + O h `.8X8X8X8X8X8X8X8X8X8X8X8X8X8X8X>X2.+ + + + + + qXqX",
"qXqXqX+ + + ; t.8X8X8X8X8X8X8X8X8X8X8X8X8X8X9.O + + O Q 2X8X8X8X8X*.O + X ( 8X8X8X8X8X8X8X8X8X8X8X8X8X8X8X$X2.; + + + + + qXqXqX",
"qXqXqX+ + + O > u.=X8X8X8X8X8X8X8X8X8X8X8X8X$.X + + O H :X8X8X8X8X( O + X H =X8X8X8X8X8X8X8X8X8X8X8X8X8XE.T + + + + + + + qXqXqX",
"qXqXqXqX+ + + O * / I.=X8X8X8X8X8X8X8X8X8XP.u O + + O > b.8X8X8XD.9 O + O 3 m.8X8X8X8X8X8X8X8X8X8X%XR.3.u O + + + + + + qXqXqXqX",
"qXqXqXqX+ + + + + X 9 L 6.j.z.z.z.z.z.z.1.p O + + + O O 9 #.h.*.w O + + + O 9 $.v.v.k.k.z.z.h.u.*.C 9 O O + + + + + + + qXqXqXqX",
"qXqXqXqXqX+ + + + + O X X + O O O + O O O O + + + + + O O O O O O + + + + + O O + O + O + O + O O O + + + + + + + + + qXqXqXqXqX",
"qXqXqXqXqX+ + + + + + + + + + + + + + + + + + + + + + + + + + + + + + + + + + + + + + + + + + + O + + + + + + + + + + qXqXqXqXqX",
"qXqXqXqXqXqX+ + + + + + + + + + + + + + + + + + + + + + + + + + + + + + + + + + + + + + + + + + + + + + + + + + + + qXqXqXqXqXqX",
"qXqXqXqXqXqX+ + + + + + + + + + + + + + + + + + + + + + + + + + + + + + + + + + + + + + + + + + + + + + + + + + + qXqXqXqXqXqXqX",
"qXqXqXqXqXqXqX+ + + + + + + + + + + + + + + + + + + + + + + + + + + + + + + + + + + + + + + + + + + + + + + + + + qXqXqXqXqXqXqX",
"qXqXqXqXqXqXqXqX+ + + + + + + + + + + + + + + + + + + + + + + + + + + + + + + + + + + + + + + + + + + + + + + + qXqXqXqXqXqXqXqX",
"qXqXqXqXqXqXqXqXqX+ + + + + + + + + + + + + + + + + + + + + + + + + + + + + + + + + + + + + + + + + + + + + + qXqXqXqXqXqXqXqXqX",
"qXqXqXqXqXqXqXqXqXqX+ + + + + + + + + + + + + + + + + + + + + + + + + + + + + + + + + + + + + + + + + + + + qXqXqXqXqXqXqXqXqXqX",
"qXqXqXqXqXqXqXqXqXqXqX+ + + + + + + + + + + + + + + + + + + + + + + + + + + + + + + + + + + + + + + + + + qXqXqXqXqXqXqXqXqXqXqX",
"qXqXqXqXqXqXqXqXqXqXqXqX+ + + + + + + + + + + + + + + + + + + + + + + + + + + + + + + + + + + + + + + + qXqXqXqXqXqXqXqXqXqXqXqX",
"qXqXqXqXqXqXqXqXqXqXqXqXqX+ + + + + + + + + + + + + + + + + + + + + + + + + + + + + + + + + + + + + qXqXqXqXqXqXqXqXqXqXqXqXqXqX",
"qXqXqXqXqXqXqXqXqXqXqXqXqXqXqX+ + + + + + + + + + + + + + + + + + + + + + + + + + + + + + + + + + qXqXqXqXqXqXqXqXqXqXqXqXqXqXqX",
"qXqXqXqXqXqXqXqXqXqXqXqXqXqXqXqXqX+ + + + + + + + + + + + + + + + + + + + + + + + + + + + + + qXqXqXqXqXqXqXqXqXqXqXqXqXqXqXqXqX",
"qXqXqXqXqXqXqXqXqXqXqXqXqXqXqXqXqXqXqX+ + + + + + + + + + + + + + + + + + + + + + + + + + qXqXqXqXqXqXqXqXqXqXqXqXqXqXqXqXqXqXqX",
"qXqXqXqXqXqXqXqXqXqXqXqXqXqXqXqXqXqXqXqXqX+ + + + + + + + + + + + + + + + + + + + + + qXqXqXqXqXqXqXqXqXqXqXqXqXqXqXqXqXqXqXqXqX",
"qXqXqXqXqXqXqXqXqXqXqXqXqXqXqXqXqXqXqXqXqXqXqXqX+ + + + + + + + + + + + + + + + qXqXqXqXqXqXqXqXqXqXqXqXqXqXqXqXqXqXqXqXqXqXqXqX",
"qXqXqXqXqXqXqXqXqXqXqXqXqXqXqXqXqXqXqXqXqXqXqXqXqXqXqXqXqXqX+ + + + qXqXqXqXqXqXqXqXqXqXqXqXqXqXqXqXqXqXqXqXqXqXqXqXqXqXqXqXqXqX"
};
