/* XPM */
static char *_6c94a66c845450e81e45ad2add38737[] = {
/* columns rows colors chars-per-pixel */
"32 32 161 2 ",
"   c #0073D5",
".  c #0074D6",
"X  c #0075D6",
"o  c #0076D6",
"O  c #0076D7",
"+  c #0077D7",
"@  c #0078D7",
"#  c #0178D7",
"$  c #0278D7",
"%  c #0279D7",
"&  c #0379D7",
"*  c #037AD7",
"=  c #047AD7",
"-  c #047AD8",
";  c #067BD8",
":  c #077BD8",
">  c #097CD8",
",  c #0A7DD8",
"<  c #0C7ED9",
"1  c #0E7FD9",
"2  c #0F7FD9",
"3  c #1080D9",
"4  c #1181DA",
"5  c #1381DA",
"6  c #1482DA",
"7  c #1683DA",
"8  c #1884DB",
"9  c #1C86DB",
"0  c #1E87DC",
"q  c #1E88DC",
"w  c #1F88DC",
"e  c #2088DC",
"r  c #2089DC",
"t  c #238ADC",
"y  c #258BDD",
"u  c #268BDD",
"i  c #278CDD",
"p  c #288DDD",
"a  c #298DDD",
"s  c #2A8DDD",
"d  c #2A8EDD",
"f  c #2B8EDE",
"g  c #2E90DE",
"h  c #2F90DE",
"j  c #3091DE",
"k  c #3292DF",
"l  c #3392DF",
"z  c #3694DF",
"x  c #3794DF",
"c  c #3995E0",
"v  c #3996E0",
"b  c #3A96E0",
"n  c #3B96E0",
"m  c #3C97E0",
"M  c #3D97E0",
"N  c #3F98E1",
"B  c #4099E1",
"V  c #429AE1",
"C  c #439BE1",
"Z  c #449BE1",
"A  c #469CE2",
"S  c #469DE2",
"D  c #4A9EE2",
"F  c #4B9FE3",
"G  c #4DA0E3",
"H  c #4EA0E3",
"J  c #50A2E3",
"K  c #51A2E3",
"L  c #52A2E4",
"P  c #54A4E4",
"I  c #59A6E5",
"U  c #5EA9E5",
"Y  c #5FAAE6",
"T  c #60AAE6",
"R  c #66ADE7",
"E  c #6DB1E8",
"W  c #72B3E9",
"Q  c #75B5E9",
"!  c #76B5E9",
"~  c #77B6E9",
"^  c #78B6E9",
"/  c #7BB8EA",
"(  c #7DB9EA",
")  c #7FBAEB",
"_  c #7FBBEB",
"`  c #80BBEB",
"'  c #81BBEB",
"]  c #81BCEB",
"[  c #87BEEC",
"{  c #8BC1ED",
"}  c #8FC3ED",
"|  c #90C4ED",
" . c #91C4EE",
".. c #94C6EE",
"X. c #96C7EE",
"o. c #98C8EF",
"O. c #99C8EF",
"+. c #9AC9EF",
"@. c #9BCAEF",
"#. c #9CC9EF",
"$. c #A3CEF0",
"%. c #A4CEF0",
"&. c #A4CEF1",
"*. c #A6CFF1",
"=. c #A7CFF1",
"-. c #ABD1F2",
";. c #ABD2F2",
":. c #ADD3F2",
">. c #AED3F2",
",. c #AFD4F2",
"<. c #B0D4F2",
"1. c #B2D6F3",
"2. c #B3D6F3",
"3. c #B4D7F3",
"4. c #B6D8F3",
"5. c #BBDBF4",
"6. c #C1DDF5",
"7. c #C3DEF5",
"8. c #C6E0F6",
"9. c #C7E1F6",
"0. c #C8E1F6",
"q. c #C9E2F6",
"w. c #CCE3F7",
"e. c #CEE4F7",
"r. c #CFE5F7",
"t. c #D0E6F7",
"y. c #D1E6F8",
"u. c #D8EAF9",
"i. c #D9EAF9",
"p. c #DBECF9",
"a. c #DEEDFA",
"s. c #DFEEFA",
"d. c #E1EFFA",
"f. c #E4F0FB",
"g. c #E6F2FB",
"h. c #E7F2FB",
"j. c #E8F2FB",
"k. c #EBF4FC",
"l. c #ECF4FC",
"z. c #ECF5FC",
"x. c #EDF5FC",
"c. c #EFF6FC",
"v. c #F0F7FD",
"b. c #F1F7FD",
"n. c #F2F8FD",
"m. c #F3F8FD",
"M. c #F4F9FD",
"N. c #F5F9FD",
"B. c #F5FAFD",
"V. c #F6FAFD",
"C. c #F7FAFE",
"Z. c #F7FBFE",
"A. c #F8FBFE",
"S. c #F9FCFE",
"D. c #FAFCFE",
"F. c #FBFDFE",
"G. c #FCFDFE",
"H. c #FCFEFF",
"J. c #FEFEFF",
"K. c gray100",
"L. c None",
/* pixels */
"L.L.L.L.L.L.L.L.L.L.L.L.L.@ @ @ @ @ @ L.L.L.L.L.L.L.L.L.L.L.L.L.",
"L.L.L.L.L.L.L.L.L.L.@ @ @ @ @ @ @ @ @ @ @ @ L.L.L.L.L.L.L.L.L.L.",
"L.L.L.L.L.L.L.L.@ @ @ @ @ @ @ @ @ @ @ @ @ @ @ @ L.L.L.L.L.L.L.L.",
"L.L.L.L.L.L.@ @ @ @ @ @ @ @ @ @ @ @ @ @ @ @ @ @ @ @ L.L.L.L.L.L.",
"L.L.L.L.L.@ @ @ @ @ @ @ @ @ @ @ @ @ @ @ @ @ @ @ @ @ @ L.L.L.L.L.",
"L.L.L.L.@ @ @ @ @ @ @ @ @ @ @ @ @ @ @ + @ @ @ @ @ @ @ @ L.L.L.L.",
"L.L.L.@ @ @ @ @ @ @ @ @ @ @ @ @ @ @ @ + @ @ @ @ @ @ @ @ @ L.L.L.",
"L.L.L.@ @ @ @ @ @ @ @ @ @ @ @ @ @ + e u + @ @ @ @ @ @ @ @ L.L.L.",
"L.L.@ @ + @ @ + + @ @ @ @ @ @ @ + + M =.3 + @ + @ @ @ @ @ @ L.L.",
"L.L.@ @ + + + + + @ + + X + + @ + + v c.) @ + + @ @ @ @ @ @ L.L.",
"L.@ @ + = k T Y k @ 6 D R G 6 + @ + v m.l.D 2 2 ; + + + @ @ @ L.",
"L.@ + 2 { l.K.K.j.#.7.D.K.A.q.V + X v m.K.d.q.w.1.E 8 + @ @ @ L.",
"L.@ @ ' K.K.K.K.K.K.K.K.K.K.K.i.a X v m.K.K.K.K.K.K.9.x + @ @ L.",
"@ + e a.K.n...O.M.K.K.w.) 9.K.K.) X v m.K.K.h.d.A.K.K.t.i + @ @ ",
"@ + N V.K.>.@ > 4.K.A.G   Z M.K.>.+ v c.K.7.f e I y.K.K.+.@ @ @ ",
"@ + Z V.K.+.@ @ %.K.m.v + k c.K.>.+ v M.K.>.= + + n h.K.a.e + @ ",
"+ + B D.K.#.@ @ %.K.M.v + l c.K.<.+ v c.K.<.= + @ ; >.K.V.B + + ",
"@ + S V.K.+.@ @ +.K.c.k + d l.K.%.+ M A.K.1.= + @ + $.K.A.S + @ ",
"@ + Z V.K.+.+ + x >./ > + > Q :.M + u %.1.^ @ + + 3 e.K.x.f + + ",
"L.+ M V.K.3., + + + X + + + X @ + @ @ @ @ @ @ + 3 [ K.K.5.2 @ L.",
"L.+ w u.K.V.1.} | | Y = + @ P ] t + @ P } | | +.q.A.K.V.K @ @ L.",
"L.@ + W D.K.K.K.K.K.m.v + a j.K.O.+ a j.K.K.K.K.K.K.V.^ @ @ @ L.",
"L.L.+ , ^ d.A.K.D.K.p.f + w e.K.' + w t.K.K.D.K.v.7.P ; @ @ L.L.",
"L.L.@ + @ e D P P P k + @ + a Z 2 + + a P P P G l 2 + @ @ @ L.L.",
"L.L.L.@ @ + + + + + + @ @ @ + + @ @ @ + + + + + + + @ @ @ L.L.L.",
"L.L.L.@ @ @ + + @ @ + + @ @ @ @ @ @ @ @ + + + @ @ + @ @ @ L.L.L.",
"L.L.L.L.@ @ @ @ @ @ @ @ @ @ @ @ @ @ @ @ + @ @ @ @ @ @ @ L.L.L.L.",
"L.L.L.L.L.@ @ @ @ @ @ @ @ @ @ @ @ @ @ @ @ @ @ @ @ @ @ L.L.L.L.L.",
"L.L.L.L.L.L.@ @ @ @ @ @ @ @ @ @ @ @ @ @ @ @ @ @ @ @ L.L.L.L.L.L.",
"L.L.L.L.L.L.L.L.@ @ @ @ @ @ @ @ @ @ @ @ @ @ @ @ L.L.L.L.L.L.L.L.",
"L.L.L.L.L.L.L.L.L.L.@ @ @ @ @ @ @ @ @ @ @ @ L.L.L.L.L.L.L.L.L.L.",
"L.L.L.L.L.L.L.L.L.L.L.L.L.@ @ @ @ @ @ L.L.L.L.L.L.L.L.L.L.L.L.L."
};
