/* XPM */
static char *_b8f8c64a4ca4c9aaa2e046fbe40c293[] = {
/* columns rows colors chars-per-pixel */
"128 128 57 1 ",
"  c #0076D6",
". c #0078D7",
"X c #077AD8",
"o c #0C7CD8",
"O c #117ED9",
"+ c #1681DA",
"@ c #1B83DA",
"# c #2287DB",
"$ c #2589DC",
"% c #2B8BDD",
"& c #318EDE",
"* c #3590DE",
"= c #3B94DF",
"- c #3E96E0",
"; c #4197E0",
": c #4299E1",
"> c #4C9DE2",
", c #509FE2",
"< c #55A2E4",
"1 c #5BA4E4",
"2 c #61A7E5",
"3 c #64AAE6",
"4 c #6BADE7",
"5 c #70AFE7",
"6 c #6FB0E7",
"7 c #6EB0E8",
"8 c #75B2E8",
"9 c #7BB6E9",
"0 c #7DB9EA",
"q c #83BBEB",
"w c #8ABFEC",
"e c #8EC0EC",
"r c #93C3ED",
"t c #99C6EE",
"y c #9DC9EF",
"u c #A0CAEF",
"i c #A4CCF0",
"p c #A9CFF1",
"a c #ACD1F2",
"s c #B5D6F3",
"d c #B8D7F3",
"f c #BCDAF4",
"g c #C3DDF5",
"h c #C8DFF6",
"j c #C7E0F6",
"k c #CCE2F6",
"l c #D1E5F7",
"z c #D4E7F8",
"x c #D6E9F8",
"c c #DCEBF9",
"v c #E2EFFA",
"b c #E5F1FB",
"n c #EBF4FC",
"m c #F1F7FD",
"M c #F5FAFE",
"N c #FFFFFF",
"B c None",
/* pixels */
"BBBBBBBBBBBBBBBBBBBBBBBBBBBBBBBBBBBBBBBBBBBBBBBBBBBBBBBBBBBBBBBBBBBBBBBBBBBBBBBBBBBBBBBBBBBBBBBBBBBBBBBBBBBBBBBBBBBBBBBBBBBBBBBB",
"BBBBBBBBBBBBBBBBBBBBBBBBBBBBBBBBBBBBBBBBBBBBBBBBBBBBBBB..................BBBBBBBBBBBBBBBBBBBBBBBBBBBBBBBBBBBBBBBBBBBBBBBBBBBBBBB",
"BBBBBBBBBBBBBBBBBBBBBBBBBBBBBBBBBBBBBBBBBBBBBBBBBB............................BBBBBBBBBBBBBBBBBBBBBBBBBBBBBBBBBBBBBBBBBBBBBBBBBB",
"BBBBBBBBBBBBBBBBBBBBBBBBBBBBBBBBBBBBBBBBBBBBBB....................................BBBBBBBBBBBBBBBBBBBBBBBBBBBBBBBBBBBBBBBBBBBBBB",
"BBBBBBBBBBBBBBBBBBBBBBBBBBBBBBBBBBBBBBBBBBB..........................................BBBBBBBBBBBBBBBBBBBBBBBBBBBBBBBBBBBBBBBBBBB",
"BBBBBBBBBBBBBBBBBBBBBBBBBBBBBBBBBBBBBBBB................................................BBBBBBBBBBBBBBBBBBBBBBBBBBBBBBBBBBBBBBBB",
"BBBBBBBBBBBBBBBBBBBBBBBBBBBBBBBBBBBBBB....................................................BBBBBBBBBBBBBBBBBBBBBBBBBBBBBBBBBBBBBB",
"BBBBBBBBBBBBBBBBBBBBBBBBBBBBBBBBBBBB........................................................BBBBBBBBBBBBBBBBBBBBBBBBBBBBBBBBBBBB",
"BBBBBBBBBBBBBBBBBBBBBBBBBBBBBBBBBB............................................................BBBBBBBBBBBBBBBBBBBBBBBBBBBBBBBBBB",
"BBBBBBBBBBBBBBBBBBBBBBBBBBBBBBBB................................................................BBBBBBBBBBBBBBBBBBBBBBBBBBBBBBBB",
"BBBBBBBBBBBBBBBBBBBBBBBBBBBBBBB..................................................................BBBBBBBBBBBBBBBBBBBBBBBBBBBBBBB",
"BBBBBBBBBBBBBBBBBBBBBBBBBBBBB......................................................................BBBBBBBBBBBBBBBBBBBBBBBBBBBBB",
"BBBBBBBBBBBBBBBBBBBBBBBBBBBB........................................................................BBBBBBBBBBBBBBBBBBBBBBBBBBBB",
"BBBBBBBBBBBBBBBBBBBBBBBBBB............................................................................BBBBBBBBBBBBBBBBBBBBBBBBBB",
"BBBBBBBBBBBBBBBBBBBBBBBBB..............................................................................BBBBBBBBBBBBBBBBBBBBBBBBB",
"BBBBBBBBBBBBBBBBBBBBBBBB................................................................................BBBBBBBBBBBBBBBBBBBBBBBB",
"BBBBBBBBBBBBBBBBBBBBBB............................. .....................................................BBBBBBBBBBBBBBBBBBBBBBB",
"BBBBBBBBBBBBBBBBBBBBB......................................................................................BBBBBBBBBBBBBBBBBBBBB",
"BBBBBBBBBBBBBBBBBBBB........................................................................................BBBBBBBBBBBBBBBBBBBB",
"BBBBBBBBBBBBBBBBBBB..........................................................................................BBBBBBBBBBBBBBBBBBB",
"BBBBBBBBBBBBBBBBBB............................................................................................BBBBBBBBBBBBBBBBBB",
"BBBBBBBBBBBBBBBBB..............................................................................................BBBBBBBBBBBBBBBBB",
"BBBBBBBBBBBBBBBB...............................................................................................BBBBBBBBBBBBBBBBB",
"BBBBBBBBBBBBBBBB................................................................................................BBBBBBBBBBBBBBBB",
"BBBBBBBBBBBBBBB..................................................................................................BBBBBBBBBBBBBBB",
"BBBBBBBBBBBBBB................................................................. ..................................BBBBBBBBBBBBBB",
"BBBBBBBBBBBBB......................................................................................................BBBBBBBBBBBBB",
"BBBBBBBBBBBBB......................................................................................................BBBBBBBBBBBBB",
"BBBBBBBBBBBB...............................................................o........................................BBBBBBBBBBBB",
"BBBBBBBBBBB............................................................... 4@ .......................................BBBBBBBBBBB",
"BBBBBBBBBBB........................................................ ...... irX ......................................BBBBBBBBBBB",
"BBBBBBBBBB.................................................................pN< .......................................BBBBBBBBBB",
"BBBBBBBBB................................................................. iNz% .......................................BBBBBBBBB",
"BBBBBBBBB..................................................................iNNao  .....................................BBBBBBBBB",
"BBBBBBBB.................................................................. iNNM8 .......................................BBBBBBBB",
"BBBBBBBB.................................................................. iNNNn; ......................................BBBBBBBB",
"BBBBBBB....................................................................iNNNNg@ ......................................BBBBBBB",
"BBBBBBB................................................................... uNNNNNeX......................................BBBBBBB",
"BBBBBB.................................... ............................... iNNNNNM< ......................................BBBBBB",
"BBBBBB.................................................................... iNNNNNNx% .....................................BBBBBB",
"BBBBB.................... ... .............................................iNNNNNNNpo ........................ ...........BBBBBB",
"BBBBB..................          ............          ................... iNNNNNNNN8 .....................................BBBBB",
"BBBBB................ X#>7wrrq4;@X ........ .@:4qrrw7>#X   ............... iNNNNNNNNn= .  ..... . .........................BBBBB",
"BBBB............... +1pvMNNNNNNMxy>o .. . o>yxMNNNNNNMvp1+ ................iNNNNNNNNNg@           ..........................BBBB",
"BBBB............  o1hNNNNNNNNNNNNNMd>X  X>dMNNNNNNNNNNNNNj1o  ............ iNNNNNNNNNNr%>7qerrq7>&O   ......................BBBB",
"BBBB............ %pMNNNNNNNNNNNNNNNNmeO@wmNNNNNNNNNNNNNNNNMp$ ............ iNNNNNNNNNNMnMNNNNNNNNnjr,+  ....................BBBB",
"BBB............ =zNNNNNNNNNNNNNNNNNNNNgfNNNNNNNNNNNNNNNNNNNNz- ........... iNNNNNNNNNNNNNNNNNNNNNNNNMl0$   ..................BBB",
"BBB........... ;xNNNNNNNNNNNNNNNNNNNNNNNNNNNNNNNNNNNNNNNNNNNNv: .......... iNNNNNNNNNNNNNNNNNNNNNNNNNNNc0@ ..................BBB",
"BBB.......... &xNNNNNNNNNNNNNNNNNNNNNNNNNNNNNNNNNNNNNNNNNNNNNNx& ..........iNNNNNNNNNNNNNNNNNNNNNNNNNNNNNj> .................BBB",
"BBB..........OdNNNNNNNNNNNNNNNNNNNNNNNNNNNNNNNNNNNNNNNNNNNNNNNNdO......... iNNNNNNNNNNNNNNNNNNNNNNNNNNNNNNm0o ...............BBB",
"BB.......... 8NNNNNNNNNNNNNNNNNNNNNNNNNNNNNNNNNNNNNNNNNNNNNNNNNN8 ........ iNNNNNNNNNNNNNNNNNNNNNNNNNNNNNNNNi@ ...............BB",
"BB......... $cNNNNNNNNNNNNNNNNNNNNNNNNNNNNNNNNNNNNNNNNNNNNNNNNNNc$ ....... pNNNNNNNNNNNNNNNNNNNNNNNNNNNNNNNNNa@ ..............BB",
"BB......... 0NNNNNNNNNNNNNNNNNNNNNNNNNNNNNNNNNNNNNNNNNNNNNNNNNNNN0   ..... iNNNNNNNNNNNNNNNNNNNNNNNNNNNNNNNNNNpO .............BB",
"BB........ +kNNNNNNNNNNNNNxggcNNNNNNNNNNNNNNNNNNcggxNNNNNNNNNNNNNkO .......iNNNNNNNNNNNNNNNNNNNNNNNNNNNNNNNNNNNrX.............BB",
"BB........ ;MNNNNNNNNNNNz3@oo$8bNNNNNNNNNNNNNNb8$oo@2zNNNNNNNNNNNM: ...... iNNNNNNNNNNNNNNNNNNNNNNNNNNNNNNNNNNNM3 ............BB",
"B........  9NNNNNNNNNNNl& ..   >vNNNNNNNNNNNNv> ...  &kNNNNNNNNNNN9 ...... iNNNNNNNNNNNNNMbxxcmNNNNNNNNNNNNNNNNNc& ...........BB",
"B......... iNNNNNNNNNNm>  ..... 7NNNNNNNNNNNN6 ...... >MNNNNNNNNNNi....... iNNNNNNNNNNNjq:$@@#*1txNNNNNNNNNNNNNNNyX ...........B",
"B.........ofNNNNNNNNNNfo  ..... @xNNNNNNNNNNx@ .......odNNNNNNNNNNgo...... uNNNNNNNNNNz$   ...  .@5kNNNNNNNNNNNNNM> ...........B",
"B.........OjNNNNNNNNNNe .........sNNNNNNNNNNdX........ wNNNNNNNNNNkO...... iNNNNNNNNNNkO  ........ #tMNNNNNNNNNNNNao...........B",
"B.........OkNNNNNNNNNNq ........ pNNNNNNNNNNa........  qNNNNNNNNNNhO.......iNNNNNNNNNNkO............X8mNNNNNNNNNNNm= ..........B",
"B.........OkNNNNNNNNNN0 .........pNNNNNNNNNNp......... qNNNNNNNNNNhO...... iNNNNNNNNNNkO............  9MNNNNNNNNNNNw ..........B",
"B.........OkNNNNNNNNNN0 .........pNNNNNNNNNNpX........ qNNNNNNNNNNhO.......uNNNNNNNNNNlO............  opNNNNNNNNNNNk+ .........B",
"B.........OkNNNNNNNNNN0 .........pNNNNNNNNNNp......... qNNNNNNNNNNjO...... iNNNNNNNNNNkO.............. &vNNNNNNNNNNM= .........B",
"B.........OkNNNNNNNNNN0 ........XpNNNNNNNNNNp......... qNNNNNNNNNNjO...... iNNNNNNNNNNkO.............   rNNNNNNNNNNN7 .........B",
"B........ OkNNNNNNNNNN0 .........pNNNNNNNNNNp .......  qNNNNNNNNNNjO...... iNNNNNNNNNNkO............... :MNNNNNNNNNNy .........B",
"B........ OkNNNNNNNNNN0 .........pNNNNNNNNNNpX.......  qNNNNNNNNNNjO...... iNNNNNNNNNNlO................+zNNNNNNNNNNfo.........B",
"B.........OkNNNNNNNNNN0 .........pNNNNNNNNNNp......... qNNNNNNNNNNkO...... iNNNNNNNNNNkO................XaNNNNNNNNNNzO ........B",
"B.........OkNNNNNNNNNN0 ........ pNNNNNNNNNNa......... qNNNNNNNNNNjO.......iNNNNNNNNNNkO................ rNNNNNNNNNNx@.........B",
"B.........OkNNNNNNNNNN0 .........pNNNNNNNNNNp......... qNNNNNNNNNNj+...... iNNNNNNNNNNkO................ wNNNNNNNNNNv#.........B",
"B.........OkNNNNNNNNNN0 ........ pNNNNNNNNNNp......... 0NNNNNNNNNNjo.......iNNNNNNNNNNlO................ eNNNNNNNNNNv@.........B",
"B.......  OkNNNNNNNNNN0 ........ eNNNNNNNNNNe ........ 3NNNNNNNNNNso...... iNNNNNNNNNNkO................ tNNNNNNNNNNx@.........B",
"B......  XOkNNNNNNNNNN0 ........ >MNNNNNNNNM, ........ &bNNNNNNNNN6 ...... iNNNNNNNNNNkO................XdNNNNNNNNNNjO.........B",
"B.........OkNNNNNNNNNN0 .........oaNNNNNNNNao...........wNNNNNNNNj@....... iNNNNNNNNNNkO............... @xNNNNNNNNNNsX........BB",
"BB........OkNNNNNNNNNN0 ..........$fNNNNNNf$........... OpNNNNNNz- ........iNNNNNNNNNNzO............... >MNNNNNNNNNNw ........BB",
"BB........OkNNNNNNNNNN9 .......... @0jbbj9@ ............ o3gvbzw$ .........0ggggggggghto..............  tNNNNNNNNNNN1 ........BB",
"BB........OkNNNNNNNNNN9 ............ O$$O  ..............  o$%+   .........Xooooooooooo .............. *nNNNNNNNNNNb& ........BB",
"BB........OkNNNNNNNNNNq ............ . ......................  ............. ........................ opNNNNNNNNNNNdo.. ......BB",
"BB........ohNNNNNNNNNNy ....................................................  ....................   X0NNNNNNNNNNNN4 .........BB",
"BBB.......XdNNNNNNNNNNz@ ..... ...............................................................  ... o9MNNNNNNNNNNNx$ ........BBB",
"BBB....... eNNNNNNNNNNNq  ....  ............................................................... .  &pNNNNNNNNNNNNNw..........BBB",
"BBB....... 2NNNNNNNNNNNM0O                  ...............    ................                 O=evNNNNNNNNNNNNNc% .........BBB",
"BBB........&nNNNNNNNNNNNNh91<<<<<<<<<<,<=O  ............. X%><&o ............ .$:<<<<<<,<<<<128tjmNNNNNNNNNNNNNNN6 .........BBBB",
"BBBB.......XaNNNNNNNNNNNNNNNMNNNMNNNNNNNmh<X............ &ybNMnd: .......... $rvMNNNMNNNNNNNNNNNNNNNNNNNNNNNNNNNdO..........BBBB",
"BBBB........<MNNNNNNNNNNNNNNNNNNNNNNNNNNNNM8........... *lNNNNNNn< ........ *lNNNNNNNNNNNNNNNNNNNNNNNNNNNNNNNNNc* ..........BBBB",
"BBBB........odNNNNNNNNNNNNNNNNNNNNNNNNNNNNNm> .........OdNNNNNNNNc&....... odNNNNNNNNNNNNNNNNNNNNNNNNNNNNNNNNNm< ...........BBBB",
"BBBBB....... :nNNNNNNNNNNNNNNNNNNNNNNNNNNNNNp ........ <NNNNNNNNNNq....... <MNNNNNNNNNNNNNNNNNNNNNNNNNNNNNNNNM7 ...........BBBBB",
"BBBBB.........8NNNNNNNNNNNNNNNNNNNNNNNNNNNNNx@ ....... eNNNNNNNNNNfo...... eNNNNNNNNNNNNNNNNNNNNNNNNNNNNNNNNM7X............BBBBB",
"BBBBB.........orNNNNNNNNNNNNNNNNNNNNNNNNNNNNb$ ....... yNNNNNNNNNNjO...... uNNNNNNNNNNNNNNNNNNNNNNNNNNNNNNNv1  ...........BBBBBB",
"BBBBBB........ OyNNNNNNNNNNNNNNNNNNNNNNNNNNNx+........ wNNNNNNNNNNdo...... eNNNNNNNNNNNNNNNNNNNNNNNNNNNNNNg=  ............BBBBBB",
"BBBBBB..........oqmNNNNNNNNNNNNNNNNNNNNNNNNNyX........ ,MNNNNNNNNN0 ...... <NNNNNNNNNNNNNNNNNNNNNNNNNNNNbq+ ..............BBBBBB",
"BBBBBBB......... X<kNNNNNNNNNNNNNNNNNNNNNNNn= .........osNNNNNNNNx$ ...... odNNNNNNNNNNNNNNNNNNNNNNNNNny*  ..............BBBBBBB",
"BBBBBBB........... @8zMNNNNNNNNNNNNNNNNNNNm2............%hNNNNNNv> ........ *kNNNNNNNNNNNNNNNNNNNNNMkw*  ................BBBBBBB",
"BBBBBBBB...........  @<rjbmMMMMMMMMMMMMMbs>............. #exmMvp* .......... %rvMNMNMMMMMMMNMMmbka0:+  .................BBBBBBBB",
"BBBBBBBB............   .o$==::;;;;::::::%o .............   #=-$X ............ X#;:;;:-;;;;;;;-*$+X   ...................BBBBBBBB",
"BBBBBBBBB................         ..      ..................  .................     ..  ..  .. . ......................BBBBBBBBB",
"BBBBBBBBB.................. ............. .............................................................................BBBBBBBBB",
"BBBBBBBBBB............................................................................................................BBBBBBBBBB",
"BBBBBBBBBBB..........................................................................................................BBBBBBBBBBB",
"BBBBBBBBBBB..........................................................................................................BBBBBBBBBBB",
"BBBBBBBBBBBB........................................................................................................BBBBBBBBBBBB",
"BBBBBBBBBBBBB......................................................................................................BBBBBBBBBBBBB",
"BBBBBBBBBBBBB......................................................................................................BBBBBBBBBBBBB",
"BBBBBBBBBBBBBB.................... ...............................................................................BBBBBBBBBBBBBB",
"BBBBBBBBBBBBBBB................................................................................. ................BBBBBBBBBBBBBBB",
"BBBBBBBBBBBBBBBB..................................................................... ..........................BBBBBBBBBBBBBBBB",
"BBBBBBBBBBBBBBBBB..............................................................................................BBBBBBBBBBBBBBBBB",
"BBBBBBBBBBBBBBBBB.............................................................................................BBBBBBBBBBBBBBBBBB",
"BBBBBBBBBBBBBBBBBB............................................................................................BBBBBBBBBBBBBBBBBB",
"BBBBBBBBBBBBBBBBBBB..........................................................................................BBBBBBBBBBBBBBBBBBB",
"BBBBBBBBBBBBBBBBBBBB........................................................................................BBBBBBBBBBBBBBBBBBBB",
"BBBBBBBBBBBBBBBBBBBBB.....................................................................................BBBBBBBBBBBBBBBBBBBBBB",
"BBBBBBBBBBBBBBBBBBBBBBB..................................................................................BBBBBBBBBBBBBBBBBBBBBBB",
"BBBBBBBBBBBBBBBBBBBBBBBB................................................................................BBBBBBBBBBBBBBBBBBBBBBBB",
"BBBBBBBBBBBBBBBBBBBBBBBBB..............................................................................BBBBBBBBBBBBBBBBBBBBBBBBB",
"BBBBBBBBBBBBBBBBBBBBBBBBBB............................................................................BBBBBBBBBBBBBBBBBBBBBBBBBB",
"BBBBBBBBBBBBBBBBBBBBBBBBBBBB........................................................................BBBBBBBBBBBBBBBBBBBBBBBBBBBB",
"BBBBBBBBBBBBBBBBBBBBBBBBBBBBB......................................................................BBBBBBBBBBBBBBBBBBBBBBBBBBBBB",
"BBBBBBBBBBBBBBBBBBBBBBBBBBBBBBB..................................................................BBBBBBBBBBBBBBBBBBBBBBBBBBBBBBB",
"BBBBBBBBBBBBBBBBBBBBBBBBBBBBBBBB................................................................BBBBBBBBBBBBBBBBBBBBBBBBBBBBBBBB",
"BBBBBBBBBBBBBBBBBBBBBBBBBBBBBBBBBB............................................................BBBBBBBBBBBBBBBBBBBBBBBBBBBBBBBBBB",
"BBBBBBBBBBBBBBBBBBBBBBBBBBBBBBBBBBBB........................................................BBBBBBBBBBBBBBBBBBBBBBBBBBBBBBBBBBBB",
"BBBBBBBBBBBBBBBBBBBBBBBBBBBBBBBBBBBBBB....................................................BBBBBBBBBBBBBBBBBBBBBBBBBBBBBBBBBBBBBB",
"BBBBBBBBBBBBBBBBBBBBBBBBBBBBBBBBBBBBBBBBB..............................................BBBBBBBBBBBBBBBBBBBBBBBBBBBBBBBBBBBBBBBBB",
"BBBBBBBBBBBBBBBBBBBBBBBBBBBBBBBBBBBBBBBBBBB..........................................BBBBBBBBBBBBBBBBBBBBBBBBBBBBBBBBBBBBBBBBBBB",
"BBBBBBBBBBBBBBBBBBBBBBBBBBBBBBBBBBBBBBBBBBBBBB...................................BBBBBBBBBBBBBBBBBBBBBBBBBBBBBBBBBBBBBBBBBBBBBBB",
"BBBBBBBBBBBBBBBBBBBBBBBBBBBBBBBBBBBBBBBBBBBBBBBBBB............................BBBBBBBBBBBBBBBBBBBBBBBBBBBBBBBBBBBBBBBBBBBBBBBBBB",
"BBBBBBBBBBBBBBBBBBBBBBBBBBBBBBBBBBBBBBBBBBBBBBBBBBBBBBBB................BBBBBBBBBBBBBBBBBBBBBBBBBBBBBBBBBBBBBBBBBBBBBBBBBBBBBBBB",
"BBBBBBBBBBBBBBBBBBBBBBBBBBBBBBBBBBBBBBBBBBBBBBBBBBBBBBBBBBBBBBBBBBBBBBBBBBBBBBBBBBBBBBBBBBBBBBBBBBBBBBBBBBBBBBBBBBBBBBBBBBBBBBBB"
};
